<svg version="1.1" id="Layer_1" xmlns="http://www.w3.org/2000/svg" xmlns:xlink="http://www.w3.org/1999/xlink" x="0px" y="0px"
	 width="100%" viewBox="0 0 976 976" enable-background="new 0 0 976 976" xml:space="preserve">
<path fill="#000000" opacity="1.000000" stroke="none" 
	d="
M434.020996,842.967712 
	C431.636902,840.187378 429.483185,837.676331 426.596954,834.311157 
	C423.636902,845.398743 420.896423,855.663818 417.874817,866.981934 
	C412.037323,861.164429 408.310425,855.310669 404.583679,849.494812 
	C393.447449,832.115906 386.265717,813.374146 384.500122,792.611145 
	C383.885773,785.386536 379.573975,779.359558 376.223999,772.550598 
	C372.065735,776.234009 369.306427,780.399292 365.586853,783.669067 
	C359.487610,789.030579 352.799438,793.179260 345.110992,795.813965 
	C338.009918,798.247437 336.974548,797.380249 337.956818,789.754883 
	C338.657562,784.315308 339.152771,778.847961 339.667877,773.386169 
	C341.163849,757.523560 338.300262,742.567993 330.498993,728.577454 
	C324.252930,717.376038 318.196106,706.069153 312.029480,694.823181 
	C311.645050,694.122070 311.035217,693.544556 310.029358,692.279663 
	C304.590729,702.572083 301.582520,713.480408 295.585510,723.904541 
	C277.091461,694.109070 274.523560,661.022949 269.880920,628.240723 
	C267.363739,628.758789 266.786530,630.611816 265.883667,632.022949 
	C258.431549,643.671387 251.044144,655.361206 243.565323,666.992371 
	C242.640915,668.429993 242.069977,670.764099 239.724380,670.327942 
	C237.375015,669.891052 237.713333,667.506836 237.334885,665.831848 
	C231.016296,637.867126 228.741653,609.905396 237.570023,581.975586 
	C237.912628,580.891785 238.015839,579.732239 238.219818,578.664368 
	C230.912857,578.664368 223.844391,578.585266 216.778824,578.693726 
	C212.453262,578.760132 208.133896,579.171021 203.807968,579.306763 
	C202.395401,579.351196 200.607605,579.786133 199.896576,577.945923 
	C199.210114,576.169373 200.691696,575.267517 201.733582,574.211731 
	C213.213318,562.578308 224.061600,550.399292 234.090607,537.475830 
	C245.044891,523.359985 254.822021,508.481995 263.701965,492.997681 
	C264.678070,491.295624 265.845123,489.681885 264.305389,487.518005 
	C251.564804,469.612976 238.893204,451.658875 226.505783,434.150787 
	C223.873230,433.233185 223.399765,436.143066 221.344086,435.689301 
	C213.030533,428.864136 221.887787,423.461151 223.332092,417.107178 
	C220.650940,414.768677 217.216248,413.905060 214.022980,412.730713 
	C210.852158,411.564545 210.402222,409.917084 211.802673,407.029053 
	C213.383224,403.769684 215.627701,400.786682 216.477097,396.478027 
	C205.178436,394.309784 203.933151,384.814697 201.417648,375.964264 
	C199.189377,368.124420 196.520004,360.391388 193.663879,352.753845 
	C190.958389,345.519104 190.749847,338.746277 195.868927,332.519196 
	C198.250427,329.622253 197.425156,327.381653 194.874557,325.289703 
	C186.512527,318.431244 183.031326,309.286469 181.380600,298.831909 
	C180.322739,292.132019 182.470413,287.144043 186.444702,282.349884 
	C188.026154,280.442169 189.554443,278.490417 191.003845,276.687012 
	C190.773529,276.064941 190.751129,275.600616 190.534363,275.476898 
	C179.677048,269.280304 177.129257,259.389771 177.627350,247.763885 
	C178.494766,227.518402 180.975174,207.637131 188.778336,188.721146 
	C193.543884,177.168808 200.886337,167.297256 208.805862,157.800446 
	C209.603516,156.843933 210.320923,155.531387 212.234222,155.745193 
	C213.901337,158.186340 213.094086,161.106781 213.215393,163.823074 
	C215.007538,203.955307 228.591995,238.913498 258.484680,266.619629 
	C273.661041,280.685852 291.165009,291.217834 309.993988,299.666779 
	C313.740662,301.347961 314.990234,299.992340 315.707458,296.414825 
	C318.847656,280.751251 322.805359,265.270569 326.345123,249.698563 
	C328.577515,239.877884 333.482025,231.901978 339.956055,224.551056 
	C349.907166,213.252075 360.791016,203.001358 373.205505,194.427063 
	C373.996704,193.880600 374.662689,193.152802 375.973053,191.988602 
	C367.445038,185.048172 359.175079,178.317719 350.278412,171.077271 
	C356.282562,166.938339 361.430298,163.363800 366.605835,159.830017 
	C370.871765,156.917313 375.072144,153.889923 379.488098,151.222092 
	C382.646637,149.313919 382.920349,147.335724 381.124359,144.284607 
	C378.761353,140.270294 376.975647,135.911972 374.555389,131.936768 
	C372.438202,128.459427 373.522095,127.097549 377.019501,125.881897 
	C393.395325,120.189964 409.890198,118.991974 426.520142,124.429337 
	C429.814423,125.506447 431.178040,124.819016 432.475800,121.711403 
	C436.888153,111.145767 439.516235,100.232224 439.872406,88.777267 
	C439.913666,87.449608 440.080566,86.118668 440.295746,84.806717 
	C440.398590,84.179626 440.750977,83.593475 440.949463,83.092087 
	C442.793121,82.376007 443.530029,83.779282 444.453125,84.595352 
	C449.696106,89.230423 454.992950,93.811813 460.070526,98.623505 
	C462.496490,100.922409 464.194214,100.556923 466.303070,98.304619 
	C479.382202,84.335838 489.002258,68.742752 489.973114,48.968891 
	C490.060883,47.181370 489.871490,45.276459 491.202454,43.676838 
	C493.420624,42.998455 494.956757,44.435276 496.582581,45.505589 
	C512.240234,55.813183 521.161499,70.387039 524.253296,88.780540 
	C525.969299,98.989044 531.615784,107.627724 536.086548,116.713837 
	C537.481567,119.549034 539.583313,117.659500 541.232239,116.960480 
	C550.273254,113.127655 559.649414,111.071404 569.476501,111.759613 
	C582.817383,112.693893 595.135315,116.806046 607.206848,124.380051 
	C599.388733,130.896957 590.360718,134.492508 582.570251,140.393967 
	C584.355774,143.219650 587.156494,144.481781 589.650635,145.856003 
	C603.539612,153.508835 612.870056,165.016281 618.981750,179.451126 
	C621.442505,185.262924 620.700806,187.624786 614.948181,189.947525 
	C612.493896,190.938461 609.907532,191.664246 607.316040,194.172195 
	C612.241394,197.997421 616.988892,201.787064 621.844360,205.433014 
	C630.549988,211.969955 638.468689,219.254608 644.899719,228.126205 
	C655.652527,242.959671 660.869934,259.776276 663.332336,277.690857 
	C664.414124,285.561188 666.165100,293.318634 668.496643,301.643127 
	C699.458984,289.893250 724.887878,271.697113 743.601013,244.764069 
	C762.278015,217.883011 769.756653,187.610550 768.856201,155.237946 
	C772.046997,154.633987 773.090027,156.630341 774.373840,158.001068 
	C793.042969,177.934402 803.001770,201.840973 804.024231,228.853333 
	C806.527893,295.000061 793.642395,358.029358 763.447937,417.212128 
	C751.524780,440.582336 737.422729,462.596985 720.868652,482.949799 
	C717.178833,487.486206 717.147827,490.861664 719.952209,495.770874 
	C736.104248,524.045471 756.129700,549.273010 778.991211,572.352295 
	C780.548584,573.924561 783.590820,575.343079 782.615967,577.824158 
	C781.479797,580.715881 778.191162,579.311523 775.880737,579.232361 
	C765.610168,578.880127 755.347534,578.296204 744.134705,577.749878 
	C748.986023,593.301025 750.919556,608.495605 750.436523,624.042297 
	C749.955322,639.530701 747.375244,654.612183 743.660522,669.536560 
	C743.169617,669.678040 742.678711,669.819458 742.187805,669.960938 
	C732.862610,655.746094 723.537476,641.531250 714.212280,627.316406 
	C710.528809,660.961365 705.723206,694.072754 686.955322,725.026978 
	C682.474731,713.710449 678.543091,703.780334 674.070679,692.484497 
	C663.575317,709.330872 652.200073,724.068298 646.268005,742.003540 
	C640.243835,760.217407 645.142395,778.636230 645.456909,797.798035 
	C629.286560,794.366272 617.576843,785.522766 607.629272,772.238953 
	C603.077209,779.302795 598.877014,785.942444 598.387268,793.818909 
	C596.720947,820.618958 584.793640,842.906799 568.731873,863.501404 
	C568.034607,864.395508 567.462463,865.527222 565.117310,865.218445 
	C562.393005,855.423950 559.570007,845.274536 556.404663,833.894531 
	C529.827637,866.099670 503.390259,897.027588 491.675354,937.743164 
	C481.050140,900.743347 458.273834,871.609741 434.020996,842.967712 
M324.367706,463.077484 
	C332.306030,466.095428 340.316772,468.939606 348.152344,472.204285 
	C352.102875,473.850220 355.267365,473.549957 358.869781,471.185913 
	C367.222595,465.704529 375.791412,460.546021 384.361023,455.403870 
	C388.678589,452.813110 393.300232,450.943390 398.631348,451.244324 
	C384.598267,466.681793 369.585114,480.971680 357.241516,497.742859 
	C368.842957,489.879486 380.444366,482.016113 392.110504,474.108887 
	C394.230591,477.340454 392.658264,479.681885 392.029907,481.949982 
	C384.997803,507.332764 380.515717,532.974060 384.393555,559.401733 
	C386.266113,572.163452 391.438385,583.643616 399.034851,594.028442 
	C400.531464,596.074463 402.335052,598.016113 405.267853,597.058777 
	C407.939514,596.186707 409.805084,594.726318 409.899750,591.375000 
	C409.973175,588.773254 410.673676,586.065552 411.661285,583.634766 
	C415.860321,573.299866 420.267181,563.049377 424.607880,552.772156 
	C424.995605,551.854126 425.405762,550.917297 426.616425,550.802490 
	C427.945557,551.154968 428.230011,552.387085 428.742157,553.399292 
	C433.177887,562.166016 437.792297,570.850525 441.926727,579.757629 
	C443.675842,583.525818 445.780701,584.421875 449.677673,583.492493 
	C461.700378,580.625061 473.971649,579.379150 486.297668,579.009521 
	C501.664185,578.548584 516.908813,580.009033 531.923401,583.311157 
	C536.391174,584.293701 538.999512,583.350952 540.956360,578.978027 
	C544.492310,571.076477 548.537354,563.400208 552.470154,555.680969 
	C553.333923,553.985535 553.648254,551.813843 555.748474,550.907166 
	C556.965454,551.151245 557.335205,552.173889 557.705811,553.043457 
	C561.751831,562.536194 566.304382,571.828613 569.257324,581.758240 
	C570.348389,585.426941 571.045471,589.236694 572.412170,592.794006 
	C574.447144,598.091003 580.976379,599.553345 583.799988,595.399658 
	C596.318909,576.983459 601.594055,556.616211 600.311707,534.383606 
	C599.231018,515.646057 595.035400,497.516724 590.468323,479.428528 
	C590.083069,477.902374 589.064270,476.319519 590.907410,474.210602 
	C601.716370,481.581818 612.577759,488.988800 623.439148,496.395782 
	C611.793213,478.983734 595.336060,466.341278 580.846985,451.338348 
	C583.740906,449.952057 585.763428,450.811615 587.773926,451.429230 
	C599.202454,454.940033 609.967163,459.994141 618.911072,467.903778 
	C624.913940,473.212463 630.264465,474.286652 637.731934,471.050446 
	C647.026550,467.022278 656.856689,464.182831 666.020447,459.772491 
	C677.719482,454.142029 683.156860,445.036713 681.548706,433.394653 
	C680.410950,425.157623 675.808777,418.489960 670.067932,412.782074 
	C665.223938,407.965881 663.307190,402.575012 663.491394,395.746735 
	C663.873291,381.590729 663.523071,367.416473 663.709839,353.252838 
	C663.773865,348.394592 662.201172,344.586670 658.752075,341.237579 
	C652.655457,335.317810 646.642212,329.305817 640.757996,323.175171 
	C633.034790,315.128418 624.755737,307.584961 618.024109,298.629395 
	C616.926331,297.168945 615.015442,295.775574 616.403381,292.808838 
	C626.894165,295.947906 636.168884,302.200775 647.535400,305.840759 
	C643.000916,285.825195 640.793762,266.242889 632.873230,248.055283 
	C631.124023,244.038864 628.646423,240.436615 625.619019,237.335114 
	C605.651672,216.878860 582.666016,201.644379 554.111877,195.896545 
	C548.675537,194.802216 544.546387,195.834854 540.493103,199.659607 
	C525.590698,213.721649 510.345490,227.422150 495.529999,241.573517 
	C492.021240,244.925034 489.989349,244.316696 486.930969,241.403122 
	C472.574982,227.727112 457.934570,214.346939 443.705566,200.541779 
	C438.732513,195.716858 433.584625,194.487579 426.931610,195.746994 
	C397.431519,201.331345 374.044495,216.821472 354.931061,239.419769 
	C351.927155,242.971375 348.791992,246.448257 347.575043,251.171692 
	C343.962219,265.194092 340.161530,279.177979 337.674408,293.453003 
	C337.047150,297.053284 335.490204,300.696167 336.569427,304.833252 
	C346.705292,301.625916 355.450104,295.667877 366.054901,292.915131 
	C365.596710,297.531311 363.288849,300.121521 360.904572,302.666351 
	C349.057709,315.311066 337.208038,327.953186 325.359253,340.596100 
	C322.948669,343.168213 320.374756,345.800842 320.319580,349.531830 
	C320.174316,359.351868 318.727539,369.170074 319.762238,378.982574 
	C321.307312,393.635468 319.918457,407.283569 308.456757,418.190887 
	C306.697723,419.864899 305.482056,422.211609 304.341492,424.416077 
	C299.519745,433.735504 300.074371,442.701050 306.547272,451.097260 
	C310.972809,456.837799 317.079193,460.177307 324.367706,463.077484 
M578.723206,766.825867 
	C578.958435,764.980957 578.069031,762.958679 579.387695,761.042786 
	C582.334534,763.134094 581.991760,767.040039 585.168579,769.321289 
	C597.869202,752.662903 604.922119,733.366150 612.164551,713.877991 
	C612.771484,730.353149 613.287537,746.460205 623.547607,761.333801 
	C624.054504,758.567566 624.539917,756.950317 624.621521,755.312988 
	C625.430176,739.081848 630.872192,724.380066 639.530762,710.826721 
	C656.624268,684.070007 672.666992,656.843262 679.799744,625.398438 
	C680.046814,624.309082 680.312134,623.080078 682.664795,622.721191 
	C684.622009,636.994507 686.578430,651.261841 688.534851,665.529114 
	C692.262756,646.961609 694.067139,628.384338 693.929932,609.588928 
	C693.791687,590.643433 689.833374,572.519653 683.266052,554.710693 
	C705.942444,570.810974 719.487854,593.717285 732.106140,618.357849 
	C731.588867,592.492737 721.470154,570.696472 709.105164,548.565369 
	C718.607239,549.011841 726.342102,552.805359 735.675964,553.469604 
	C726.779968,545.870728 718.527344,539.189148 710.705261,532.036682 
	C702.860901,524.863770 696.011902,516.814941 690.992004,505.811768 
	C698.067078,508.451813 702.837891,512.515198 709.809814,514.622437 
	C701.244141,501.379517 693.272278,489.106537 685.368774,476.789703 
	C683.867920,474.450653 682.202698,474.410034 679.884399,475.525421 
	C672.680664,478.991333 665.512390,482.571564 658.117310,485.584625 
	C653.339355,487.531403 652.895996,489.831055 655.000427,494.295166 
	C662.099731,509.355957 668.834778,524.589050 675.637390,539.788391 
	C676.300049,541.269165 677.998169,542.842834 675.765991,545.062805 
	C667.948853,540.481812 662.154236,532.878296 653.750977,528.666809 
	C652.782532,531.365967 653.488647,533.248291 653.970581,535.172302 
	C656.111572,543.720825 658.605103,552.249329 659.217590,561.051147 
	C660.241150,575.760315 664.359131,589.114746 674.042358,600.539734 
	C676.801880,603.795593 678.647095,607.781189 677.025085,612.126221 
	C672.253113,624.909363 668.006409,637.943054 660.788696,649.664429 
	C646.693909,672.553894 621.355713,684.975342 593.352783,676.822021 
	C575.889221,671.737366 559.282898,664.320007 542.217468,658.151978 
	C525.261108,652.023254 508.318481,645.957581 489.930725,646.359985 
	C474.050110,646.707520 459.212830,651.942749 444.279175,656.570435 
	C427.400391,661.800842 411.411133,669.443970 394.700806,675.141541 
	C366.297638,684.825989 342.481476,677.482483 324.470947,653.506348 
	C316.987274,643.543884 312.144043,632.182312 307.629333,620.710999 
	C303.630127,610.549500 305.942078,601.455200 313.343994,593.531616 
	C318.588989,587.916931 321.941437,581.492676 322.894409,573.664062 
	C324.663605,559.129700 327.085052,544.689819 331.207458,530.593201 
	C331.611237,529.212524 332.317688,527.785828 330.952942,525.955078 
	C322.409302,531.705872 315.396973,539.515564 306.658478,544.925476 
	C306.072357,544.542236 305.486237,544.159058 304.900146,543.775818 
	C313.461365,525.279907 322.022614,506.783997 330.729706,487.972961 
	C320.607269,483.294098 311.219147,479.032288 301.908630,474.607300 
	C298.820648,473.139679 297.746368,475.115753 296.462402,477.149445 
	C289.524872,488.137787 282.554718,499.105560 275.636597,510.106079 
	C274.929291,511.230774 273.805481,512.298523 274.116608,514.195251 
	C280.429352,511.591034 285.558319,507.251953 292.145477,505.759521 
	C281.352264,524.696838 266.024323,539.401672 249.620285,553.331604 
	C257.371124,551.478943 265.121979,549.626343 272.872833,547.773743 
	C273.154755,548.202026 273.436707,548.630310 273.718628,549.058594 
	C267.851898,559.485901 262.361023,570.074951 258.250671,581.311768 
	C254.142426,592.542908 251.411438,603.986755 251.727585,616.092590 
	C263.844574,592.406433 277.736481,570.223145 299.497864,553.664001 
	C284.923798,590.349121 288.012390,627.587585 294.668762,664.997070 
	C296.618713,650.778015 298.568695,636.559021 300.610718,621.668762 
	C303.735718,623.753845 303.843933,625.838989 304.310913,627.731323 
	C307.751831,641.675537 312.212433,655.256714 318.762024,668.082947 
	C327.103333,684.417969 337.323273,699.671143 346.236328,715.676819 
	C353.195526,728.173828 358.486237,741.190918 358.381531,755.838684 
	C358.369110,757.574890 358.351532,759.386963 360.022949,760.943787 
	C364.971527,753.561279 367.221771,745.636047 368.653778,737.376465 
	C370.036560,729.400818 369.181030,721.214294 370.851318,713.139282 
	C377.721771,733.055359 384.699524,752.675476 397.919037,769.616089 
	C400.843628,766.774719 400.821075,762.761597 404.144470,760.014526 
	C405.115173,770.750122 402.697601,780.594604 403.868408,790.579224 
	C405.041016,800.578857 406.404938,810.347290 411.073303,820.804688 
	C416.601349,800.842529 423.809662,783.158020 434.618469,766.745300 
	C438.075684,769.286621 436.340027,771.857300 435.840637,773.994934 
	C431.134369,794.140869 434.711731,812.348877 448.285034,828.254700 
	C463.121094,845.640442 476.804047,863.878113 489.155121,883.112976 
	C489.844879,884.187134 490.341003,885.537231 491.993347,885.808533 
	C494.468109,883.978027 495.237488,880.906677 497.014465,878.545593 
	C510.238647,860.974182 523.309692,843.286743 536.629578,825.788452 
	C547.525208,811.474854 552.002136,795.791809 548.209656,777.943848 
	C547.601501,775.081482 546.226501,772.068604 547.758911,767.970093 
	C560.787354,783.293152 567.067627,800.997192 572.568115,819.516418 
	C573.424316,818.591980 573.729614,818.396057 573.836426,818.122559 
	C574.198303,817.196716 574.509338,816.249451 574.805420,815.299622 
	C579.654846,799.740845 579.154236,783.739075 578.723206,766.825867 
M483.329865,111.813751 
	C478.176941,117.704018 472.958832,123.539116 467.903931,129.512360 
	C465.949524,131.821899 464.558258,131.695114 462.835785,129.339020 
	C460.432861,126.052208 458.322357,122.485435 454.526764,119.342606 
	C450.557373,131.324142 446.785431,142.709595 442.842346,154.611740 
	C439.662720,152.845291 437.332703,151.609833 435.059692,150.277069 
	C427.966003,146.117691 420.515564,142.870148 412.356232,141.511124 
	C405.442993,140.359650 404.390289,141.571182 406.398376,148.080505 
	C406.790955,149.353058 407.140137,150.640091 407.567993,151.900528 
	C410.603638,160.843658 410.502441,159.513672 402.146637,163.304276 
	C396.440491,165.892883 390.421478,167.836960 384.959961,171.306686 
	C386.609772,174.139160 389.412415,175.292969 391.157562,177.466003 
	C394.651367,181.816483 398.805847,182.286331 404.079926,180.958939 
	C414.075958,178.443115 424.317444,176.902054 434.312042,174.381332 
	C440.781342,172.749756 445.418793,174.596207 450.020050,179.091156 
	C462.172394,190.962799 474.780792,202.368515 486.895264,214.277451 
	C490.541901,217.862198 492.664185,217.548996 496.157684,214.143738 
	C508.560577,202.054062 521.300171,190.310242 533.885620,178.407227 
	C537.931091,174.581177 542.375977,173.063980 548.027832,174.508438 
	C558.829407,177.269028 569.783081,179.436142 580.577820,182.220963 
	C586.777832,183.820404 591.586914,181.966675 596.233887,177.696365 
	C593.271912,171.130051 587.947449,167.366440 581.790161,164.560394 
	C574.447693,161.214218 566.602417,159.581299 558.690735,158.431152 
	C555.011597,157.896332 554.167480,156.433914 554.438965,152.815125 
	C554.879150,146.948013 556.994690,141.863693 559.893738,136.925171 
	C560.655823,135.626907 562.416687,134.565369 561.422058,132.507538 
	C558.136963,131.885117 555.181458,133.110596 552.213745,134.101013 
	C541.402405,137.709106 533.753174,145.747696 525.601196,153.101242 
	C524.141541,154.417969 523.175476,156.866455 519.968567,156.045975 
	C520.222290,150.965698 520.858582,145.890533 520.033691,140.760239 
	C519.201660,135.585190 518.846985,130.380722 515.694702,125.527252 
	C509.910431,130.424072 506.961884,137.202957 501.000916,141.551743 
	C503.485870,123.146187 505.322510,104.932915 502.270142,85.535271 
	C496.594940,95.303413 490.903046,103.816986 483.329865,111.813751 
M714.116394,456.656250 
	C728.777466,436.525787 741.387878,415.212280 751.220215,392.298737 
	C765.135559,359.869873 775.034790,326.327057 779.941895,291.305511 
	C781.815979,277.930084 782.375977,264.481537 783.525452,251.066589 
	C783.890320,246.808105 785.647888,244.374985 790.017090,243.589981 
	C793.641113,242.938873 796.196899,240.771545 797.027283,236.314056 
	C793.782532,236.782715 790.929504,236.852905 788.295898,237.649017 
	C783.376465,239.136108 781.965698,236.841690 781.820862,232.505829 
	C781.720703,229.507187 781.749756,226.439285 780.049500,223.159760 
	C776.981079,228.178711 776.468262,233.813354 772.304138,237.633224 
	C768.264038,241.339233 762.776855,241.466751 757.656982,243.483536 
	C760.719971,246.591415 765.082825,245.469208 767.456665,248.779617 
	C755.273865,265.629395 742.894104,282.044556 726.059631,294.566528 
	C709.297913,307.034393 690.593811,315.967987 671.929016,324.323456 
	C672.012634,326.218994 672.862427,326.828278 673.606812,327.457825 
	C682.625793,335.085724 685.747925,344.694031 684.607483,356.415741 
	C683.798035,364.735748 684.450562,373.197968 684.450562,382.169098 
	C687.128479,380.671448 688.450745,378.973145 689.743958,377.269562 
	C696.091064,368.908386 702.137512,360.339355 707.719421,351.442291 
	C717.375488,336.051453 728.765381,322.332367 744.396667,312.503510 
	C752.763184,307.242737 758.744629,299.716064 763.170349,290.885895 
	C766.465332,284.311646 768.757202,277.346588 771.502258,270.558167 
	C771.960144,269.425690 771.959045,267.825378 773.804260,267.943970 
	C774.622620,268.859222 774.388123,269.890991 774.350891,270.861603 
	C773.719788,287.299561 769.824036,302.777954 760.832214,316.756104 
	C759.033630,319.552216 756.887329,322.310974 757.965515,325.943695 
	C762.325378,340.633270 758.943420,354.596252 754.026794,368.404419 
	C753.538513,369.775726 753.615112,371.864288 751.156860,371.926636 
	C748.401367,360.950256 751.914612,348.519165 743.538269,338.172821 
	C737.456238,344.165833 733.347168,350.859619 728.419495,356.865814 
	C727.124268,358.444550 728.166321,359.997253 728.911987,361.503479 
	C730.987488,365.695526 732.755981,369.992310 733.315796,374.697235 
	C735.314026,391.488129 729.186401,405.656708 719.261414,418.649139 
	C711.927734,428.249329 700.903198,434.832336 699.812805,449.353668 
	C699.237610,457.014832 700.951477,462.231171 704.552673,468.325104 
	C708.625549,464.992340 710.934631,460.920227 714.116394,456.656250 
M278.536316,308.038300 
	C244.837738,288.719360 218.925354,262.184509 203.079895,226.168152 
	C197.124084,281.174927 208.103973,333.283936 227.645340,384.000824 
	C239.458496,414.660278 255.842590,442.626892 277.706360,467.713440 
	C278.666809,466.674561 279.280121,466.135651 279.744751,465.489807 
	C285.938507,456.880280 284.353302,440.997345 276.324005,432.207855 
	C271.831726,427.290283 266.741516,422.862701 262.659698,417.637115 
	C251.058380,402.784729 243.786163,386.216431 251.553925,367.606171 
	C255.027908,359.283142 253.592545,354.256927 248.030151,348.615723 
	C244.739410,345.278351 242.623550,340.834137 238.684464,337.686432 
	C230.643021,348.396362 232.372910,360.634521 231.200958,372.389008 
	C225.429474,361.008972 220.866104,349.084198 222.839539,336.634705 
	C224.662521,325.134308 222.750641,315.240479 217.700073,305.144409 
	C214.218613,298.185028 210.974503,290.947144 209.397354,283.236908 
	C208.340775,278.071564 207.201965,272.770264 208.269943,266.873505 
	C211.961441,268.683899 211.648865,271.526398 212.270859,273.751801 
	C216.673828,289.505310 224.602753,302.832184 238.407959,312.142151 
	C248.301437,318.814117 256.935272,326.802582 264.190674,336.278534 
	C274.618805,349.898254 282.889984,365.076630 294.316559,377.971985 
	C295.347137,379.135071 295.837402,381.027496 298.525421,380.966370 
	C298.906128,373.705353 299.095734,366.460663 298.375977,359.217590 
	C297.175354,347.135803 300.028992,336.446075 308.771454,327.648499 
	C309.645325,326.769135 311.012054,326.084290 310.675323,323.990906 
	C300.212097,319.082520 289.407227,314.299652 278.536316,308.038300 
M513.434204,626.828186 
	C533.082031,629.570312 551.589417,635.936157 569.531616,644.226624 
	C577.691223,647.996948 585.986938,651.528870 594.668213,653.961487 
	C614.046387,659.391663 630.550964,654.631226 643.852783,639.500183 
	C649.868042,632.657776 653.631226,624.693970 654.718811,615.283997 
	C653.883240,615.487732 653.470093,615.460815 653.293640,615.652222 
	C652.166626,616.874939 651.082642,618.137878 650.001221,619.401917 
	C641.102722,629.802917 630.012634,635.234985 616.139832,634.206726 
	C609.254211,633.696350 602.781799,631.502441 596.420288,628.971252 
	C580.184265,622.511169 564.290710,615.207275 547.531616,610.049805 
	C524.684937,603.018921 501.430176,599.622070 477.560333,601.582397 
	C452.041077,603.678223 428.051514,611.484497 404.727753,621.684387 
	C394.359863,626.218445 384.030731,630.989563 372.894196,633.372375 
	C358.249390,636.505859 345.500824,632.793945 335.079559,621.879028 
	C332.520691,619.198853 330.268951,616.225464 327.875977,613.386902 
	C330.169617,624.269958 334.783966,633.885315 341.885712,642.255859 
	C353.033051,655.394836 366.614136,660.134399 383.437988,654.759827 
	C395.029877,651.056641 406.530792,647.189636 417.629578,642.154602 
	C447.865570,628.437988 479.418640,622.685974 513.434204,626.828186 
M365.397308,532.020081 
	C365.397308,527.442566 365.397308,522.865051 365.397308,518.208557 
	C363.216705,518.414062 362.652924,519.978882 361.881317,521.133789 
	C347.970734,541.954834 340.960114,564.857910 342.201569,589.925720 
	C343.123047,608.532654 365.059906,619.283020 380.985168,609.389771 
	C383.763519,607.663818 384.213379,606.057922 382.224335,603.420715 
	C379.018677,599.170288 376.196564,594.666992 373.711517,589.933960 
	C364.246429,571.906738 364.437958,552.482544 365.397308,532.020081 
M640.724304,576.777405 
	C638.937683,554.233337 631.470703,533.949280 616.998291,515.642517 
	C616.662292,516.857727 616.459351,517.189697 616.505493,517.482361 
	C619.319702,535.346741 620.206543,553.203186 616.038757,570.991516 
	C615.355469,573.908020 616.843994,574.786377 619.077271,575.673523 
	C622.338440,576.969055 626.126221,577.208191 628.697205,579.693604 
	C628.374634,581.167969 627.509644,581.410095 626.761658,581.666016 
	C623.100952,582.918701 619.282349,583.157776 615.456360,583.438416 
	C613.102600,583.611206 611.256409,584.935059 610.765320,587.286438 
	C610.252319,589.742615 612.660522,590.011841 614.113098,590.952393 
	C615.925903,592.126221 618.483948,592.365967 619.475769,594.808167 
	C617.466919,596.413513 615.377075,595.921509 613.462463,595.902710 
	C608.187195,595.851074 604.269714,597.754395 601.485718,602.468262 
	C598.782288,607.045654 598.802979,607.913513 603.622864,610.379456 
	C615.777649,616.598267 630.566650,611.729614 637.695923,599.607178 
	C641.818848,592.596619 640.838318,585.166260 640.724304,576.777405 
M711.882080,404.554108 
	C712.910828,399.350708 712.684998,394.447754 708.466370,389.770691 
	C702.987000,394.718170 697.814880,399.363800 692.678894,404.049103 
	C691.792236,404.858002 691.075195,405.945190 691.790955,407.156525 
	C695.210205,412.942810 698.130127,418.998352 700.985901,425.852753 
	C706.565430,419.257050 710.488525,413.012177 711.882080,404.554108 
M270.136169,401.407135 
	C270.755005,410.737030 275.022583,418.298828 281.450348,425.682983 
	C283.527252,421.592651 285.325775,418.240906 286.953613,414.808258 
	C291.487457,405.247772 291.851440,406.971069 284.441101,399.785980 
	C282.887268,398.279358 281.485168,396.573212 279.764984,395.292267 
	C277.643860,393.712799 276.434509,389.582611 273.216675,391.077484 
	C270.131622,392.510651 270.201508,396.332031 270.103973,399.530273 
	C270.093811,399.862915 270.103149,400.196167 270.136169,401.407135 
M426.298431,589.775574 
	C427.971588,589.159058 429.914795,589.082153 431.404663,587.024902 
	C429.661713,582.581360 428.789062,577.559265 425.457977,572.597229 
	C422.366089,579.399475 419.748810,585.482117 417.470886,592.674377 
	C420.868866,591.543640 423.223541,590.760132 426.298431,589.775574 
M559.460938,578.070984 
	C558.549927,576.563171 558.470581,574.583984 556.662781,573.211121 
	C554.608643,577.170471 553.651001,581.349426 552.443604,585.425598 
	C552.100342,586.584595 552.361572,587.888184 553.584473,588.449951 
	C556.942688,589.992676 560.306763,591.656921 564.890137,591.053589 
	C563.043701,586.645142 561.390808,582.698608 559.460938,578.070984 
z"/>
<path fill="#000000" opacity="1.000000" stroke="none" 
	d="
M579.916992,365.830414 
	C585.463745,363.109619 590.676086,360.552643 596.868286,357.515045 
	C585.447327,341.623169 574.333374,326.158539 562.754272,310.046661 
	C567.453979,309.070892 569.527954,311.124481 571.569397,312.922974 
	C583.821106,323.716797 596.139954,334.440033 608.170410,345.476715 
	C612.858704,349.777710 617.776733,352.599274 624.180786,353.795227 
	C639.466248,356.649750 652.533264,371.039459 653.920715,386.445435 
	C641.559448,377.508972 628.815063,374.919250 614.198059,382.095001 
	C619.171265,385.982086 624.355957,387.771729 629.118164,390.273834 
	C634.722778,393.218475 634.781006,393.348785 631.841003,398.882599 
	C617.605225,425.677765 588.977661,438.912903 561.387085,431.243103 
	C552.172607,428.681610 543.794312,424.093048 535.784729,418.970917 
	C531.244995,416.067719 527.021851,414.924408 521.759583,417.160858 
	C516.053345,419.585938 510.259949,418.769073 505.087677,415.258850 
	C501.232086,412.642242 497.502533,409.826111 493.844788,406.936920 
	C491.684479,405.230560 489.842407,405.059143 487.614410,406.813080 
	C484.082489,409.593445 480.394928,412.176025 476.774384,414.843933 
	C472.335754,418.114716 467.511261,419.373535 462.193146,417.387299 
	C456.067474,415.099396 450.444946,416.140228 445.050140,419.560608 
	C436.577057,424.932648 427.795074,429.678864 417.942047,432.039978 
	C391.509430,438.374084 360.001312,421.982788 349.687164,396.719818 
	C348.483765,393.772278 349.431549,392.485199 351.925385,391.284454 
	C357.277985,388.707275 362.560852,385.985321 368.755768,382.879730 
	C354.087524,374.754486 341.531860,377.222046 330.088196,386.909180 
	C328.276154,385.125061 328.685394,383.594055 329.059418,382.205261 
	C331.428619,373.408142 335.282196,365.337402 341.257843,358.398529 
	C346.906219,351.839722 354.523254,350.303162 362.594666,350.967163 
	C367.372650,351.360260 369.121368,349.522369 369.734680,345.078033 
	C370.529205,339.321045 371.812195,333.629303 372.964020,327.925446 
	C373.249054,326.513947 373.413513,324.892029 375.179321,324.342865 
	C376.952850,324.587891 377.059723,325.995209 377.318573,327.287476 
	C378.558716,333.478119 380.157257,339.593842 380.342163,345.975616 
	C380.557495,353.409515 385.260956,357.891418 391.408966,360.769867 
	C408.630981,368.833221 425.007294,378.466919 441.751373,387.416565 
	C450.456970,392.069641 452.599854,391.596649 458.149719,383.518616 
	C463.823273,375.260590 468.243011,366.276398 473.021515,357.500977 
	C473.798492,356.074097 474.318634,354.422394 476.604126,353.133911 
	C478.422119,361.796539 476.262299,369.792053 474.720947,377.701508 
	C473.138306,385.822937 470.793213,393.795776 468.734467,402.022736 
	C471.962372,403.479889 474.060944,401.812836 475.828705,399.814331 
	C479.688538,395.450775 483.368896,390.928894 487.164856,386.508026 
	C488.334381,385.145996 489.095795,383.368469 491.603363,382.309570 
	C498.226868,389.208740 501.078186,400.773773 514.053589,402.813873 
	C509.818176,385.700928 503.896027,369.532440 505.996735,351.874786 
	C508.382538,353.282104 508.795471,355.326141 509.592102,357.082581 
	C514.075500,366.967834 519.030823,376.572479 525.909546,385.058990 
	C531.054810,391.406860 532.684082,391.725098 539.705872,387.865845 
	C552.991760,380.563782 566.289734,373.283569 579.916992,365.830414 
M383.359222,391.686310 
	C375.512177,394.828278 375.287201,395.657349 379.860291,402.590240 
	C382.951416,407.276398 386.853851,410.991821 391.847229,413.587158 
	C401.955963,418.841217 416.116425,417.165741 422.803558,409.760742 
	C422.162018,409.244293 421.590027,408.618530 420.885071,408.241180 
	C411.067017,402.985840 401.246033,397.735596 391.387543,392.556763 
	C389.136139,391.374054 386.665802,390.979156 383.359222,391.686310 
M604.852173,397.621857 
	C605.825256,395.519684 605.007080,394.324951 603.070862,393.237427 
	C598.911682,390.901398 594.985962,391.056946 590.739502,393.158112 
	C580.062561,398.441040 569.272522,403.495239 558.311340,408.744812 
	C570.757385,421.988220 597.104614,417.634979 604.852173,397.621857 
z"/>
<path fill="#000000" opacity="1.000000" stroke="none" 
	d="
M464.026245,440.959412 
	C468.186676,443.465027 472.045319,445.769257 475.875244,448.120300 
	C486.053650,454.368256 496.179779,454.697449 506.401642,448.133087 
	C512.519287,444.204407 518.781067,440.500092 525.718567,436.240143 
	C518.344666,433.121552 511.773895,430.342590 504.043915,427.073364 
	C507.888672,425.097229 510.559021,425.928131 513.065186,425.634338 
	C528.090759,423.872986 540.680115,427.188232 552.517578,438.101349 
	C561.655334,446.525574 569.479736,454.399048 570.541443,467.084656 
	C571.670532,480.576447 567.070801,491.626678 555.500671,499.229980 
	C549.815430,502.966003 543.582825,505.601929 537.218384,508.130249 
	C535.255615,504.841736 537.684631,503.338745 538.984497,501.732422 
	C544.684570,494.688416 549.938416,487.499054 551.290405,478.149658 
	C551.980408,473.378357 551.526001,468.846100 549.666809,464.465546 
	C547.093628,458.402740 540.664307,455.268707 534.023987,456.703705 
	C528.355530,457.928711 523.564575,460.949371 518.903748,464.188568 
	C500.488770,476.986847 482.078156,476.881683 463.587006,464.340454 
	C459.450806,461.535187 455.158905,458.942169 450.367523,457.382294 
	C440.472443,454.160980 432.348969,459.691803 431.223999,470.107422 
	C429.830078,483.012878 435.932495,492.877899 443.772797,502.106842 
	C444.633789,503.120331 445.576599,504.066162 446.404785,505.104553 
	C446.683167,505.453491 446.723114,505.992554 446.990234,506.803741 
	C443.894501,507.854462 441.427216,506.082184 438.968658,505.216980 
	C420.606903,498.755005 410.661652,485.751770 411.858398,468.452454 
	C412.668091,456.748230 417.187714,446.547668 428.008026,440.201660 
	C432.920654,437.320435 437.292786,433.686188 440.936127,429.296021 
	C443.244324,426.514771 446.064270,425.305847 449.604401,425.138336 
	C458.538086,424.715668 467.341644,425.843658 476.303375,426.837524 
	C470.411865,431.268188 463.334442,432.523346 456.212402,436.088623 
	C459.094757,437.891571 461.403107,439.335449 464.026245,440.959412 
z"/>
<path fill="#000000" opacity="1.000000" stroke="none" 
	d="
M538.689087,474.394348 
	C542.073120,480.175476 541.602722,485.559174 538.398254,490.767212 
	C535.040039,496.224945 531.164124,501.265472 526.253296,505.702850 
	C523.718933,502.896301 526.639038,500.263794 525.005310,497.801819 
	C520.568542,498.853851 518.212158,502.106659 516.529175,505.958649 
	C515.382812,508.582245 515.281982,511.426727 515.247070,514.283630 
	C515.119629,524.688477 517.169067,524.231934 505.441772,524.226807 
	C494.624847,524.222107 483.805725,524.087830 472.992065,524.272705 
	C468.864075,524.343323 467.313873,522.858826 467.559387,518.737305 
	C467.785339,514.944336 468.003174,511.102112 466.904449,507.332581 
	C465.414948,502.222290 463.091339,499.820496 457.367950,497.994629 
	C456.260040,500.485626 458.206421,503.206482 456.901672,505.626526 
	C445.616119,502.182587 438.326233,482.304199 444.734711,472.649933 
	C445.999664,470.744263 447.306519,470.998840 448.962585,471.809845 
	C457.487579,475.984772 465.975861,480.221222 473.418823,486.226288 
	C478.619080,490.421936 481.541534,495.945465 481.995270,502.530640 
	C482.243591,506.134308 483.870758,507.149750 487.068695,506.833099 
	C487.892578,506.751495 488.731628,506.822327 489.563690,506.824402 
	C498.124237,506.845551 498.088043,506.835724 500.290741,498.825562 
	C501.319153,495.085663 502.929993,491.511505 505.856598,488.938049 
	C513.638794,482.095032 522.143982,476.335785 531.910095,472.608551 
	C534.477783,471.628662 536.767944,471.382935 538.689087,474.394348 
z"/>
<path fill="#000000" opacity="1.000000" stroke="none" 
	d="
M497.302979,291.511139 
	C491.997894,293.338776 487.280579,292.836456 482.314026,291.310425 
	C471.205444,287.897186 459.935791,285.010681 448.759155,281.813812 
	C447.111725,281.342590 445.009735,281.449402 444.120697,279.288422 
	C445.536072,276.947144 447.614288,278.134735 449.438202,278.344055 
	C465.936035,280.237274 482.393341,282.751251 499.085663,281.707611 
	C509.862488,281.033813 520.574219,279.726013 531.264893,278.230713 
	C533.451233,277.924896 535.735413,277.210724 539.068359,279.675598 
	C524.766174,284.654999 511.154572,287.770447 497.302979,291.511139 
z"/>
<path fill="#000000" opacity="1.000000" stroke="none" 
	d="
M470.087708,306.896790 
	C483.685516,314.799225 497.003662,315.040802 510.509705,307.612732 
	C512.120422,306.726868 514.045959,305.738892 516.083130,306.515106 
	C517.028259,308.288239 515.663635,309.101562 514.767517,309.927490 
	C507.803833,316.345947 500.778564,322.697601 493.801178,329.101349 
	C492.299164,330.479889 490.874664,331.281799 489.063293,329.597015 
	C481.643433,322.695587 474.194336,315.825500 466.791931,308.905487 
	C466.372223,308.513153 466.272491,307.778564 466.074158,307.319641 
	C467.251862,305.446564 468.535156,306.520996 470.087708,306.896790 
z"/>
<path fill="#000000" opacity="1.000000" stroke="none" 
	d="
M483.023682,676.901123 
	C475.535553,681.324280 468.396881,685.578979 461.241364,689.805115 
	C461.019012,689.936401 460.621765,689.771606 460.011230,689.719971 
	C459.782776,687.625488 461.454224,686.512024 462.505798,685.222290 
	C466.081146,680.837341 470.281982,676.876099 473.315277,672.156189 
	C477.599670,665.489563 483.748718,663.913147 490.846893,664.091248 
	C496.452209,664.231934 501.729645,665.765137 506.268127,669.159180 
	C513.979736,674.926208 517.186340,684.346680 525.030762,690.372864 
	C521.666687,692.415588 520.481506,690.533386 519.087036,689.615173 
	C513.527527,685.954407 508.072113,682.132629 502.463257,678.550354 
	C496.459839,674.716064 490.043274,674.104248 483.023682,676.901123 
z"/>
</svg>